# xmcd
#
# Track frame offsets:
#	150
#	15967
#	29915
#	45583
#	61045
#	73321
#	91472
#	109110
#	124638
#	140106
#	154668
#	169926
#	181414
#	197399
#
# Disc length: 2857 seconds
#
# Revision: 1
# Processed by: cddbd v1.5.2PL0 Copyright (c) Steve Scherf et al.
# Submitted via: audiograbber 1.83.01
#
DISCID=bf0b270e
DTITLE=DCWDA - Special 99
DYEAR=2013
DGENRE=
TTITLE0=Andrew Gold - Never Let Her Slip Away
TTITLE1=Elvis Presley - Bossa Nova Baby
TTITLE2=Gary P Nunn - He Never Came Back From Mexico
TTITLE3=Chris Norman - Baby I Miss You
TTITLE4=Jessica Mauboy - I Can't Help Myself
TTITLE5=Caro Emerald - Just One Dance
TTITLE6=Carly Rae Jepsen - Both Sides Now
TTITLE7=Tamara - Quien Como Tu
TTITLE8=Taylor Swift - Stay Stay Stay
TTITLE9=Kris Allen - Better With You
TTITLE10=Jimmy LaFave - Route 66 Revisited
TTITLE11=Roseanne Cash and John Levental - Land Of Dreams
TTITLE12=London Bus Stop - Get It On (Bang A Gong)
TTITLE13=Helene Fischer - Wake Me Up
EXTD=
EXTT0=
EXTT1=
EXTT2=
EXTT3=
EXTT4=
EXTT5=
EXTT6=
EXTT7=
EXTT8=
EXTT9=
EXTT10=
EXTT11=
EXTT12=
EXTT13=
PLAYORDER=
